<?xml version="1.0" encoding="UTF-8"?>
<svg width="130px" height="66px" viewBox="0 0 130 66" version="1.1" xmlns="http://www.w3.org/2000/svg" xmlns:xlink="http://www.w3.org/1999/xlink">
    <!-- Generator: Sketch 50.2 (55047) - http://www.bohemiancoding.com/sketch -->
    <title>TheFeeling_ye olden stuffe_white</title>
    <desc>Created with Sketch.</desc>
    <defs></defs>
    <g id="Page-1" stroke="none" stroke-width="1" fill="none" fill-rule="evenodd">
        <g id="TheFeeling_ye-olden-stuffe_white" fill-rule="nonzero">
            <g id="Group" transform="translate(2.000000, 0.000000)" fill="#FDEB19">
                <path d="M16.5,8.6 C16.5,9.1 16.4,9.7 16.2,10.2 C15.9,12.4 15.7,14.9 15.7,17.7 C15.7,19.5 15.8,20.5 15.9,20.7 C15.9,21 15.9,21.8 15.9,23.2 L15.8,25.7 L15.7,26 C15.7,26.2 15.7,26.4 15.8,26.8 C15.8,27.1 15.9,27.4 15.9,27.6 C15.9,28 15.9,28.3 15.8,28.5 C16,29.1 16.1,29.5 16.1,29.6 C16.1,30.1 15.9,30.5 15.4,30.8 C15.1,30.9 14.7,31 14,31.1 C13.3,31.2 12.9,31.3 12.6,31.4 C11.7,31.8 11.2,32.1 11,32.1 C10.7,32.1 10.6,31.9 10.6,31.5 C10.6,31.1 10.7,30.6 10.8,29.9 C10.9,29.2 11,28.6 11,28.3 L11,28.2 C10.9,28.1 10.9,27.9 10.9,27.5 C10.9,26 10.9,25.2 11,25.1 L11,25.2 C11,25 11,24.7 10.9,24.2 C10.8,23.7 10.8,23.4 10.9,23.2 L10.9,22.6 L10.7,22.5 L10.5,22.6 L7.3,26.8 C7.1,26.8 6.9,26.9 6.9,26.9 C6.6,26.9 6,26.5 5.1,25.8 C2.6,24.7 1.4,24.1 1.3,24.1 C1.2,23.9 1.2,23.8 1.2,23.6 C1.2,23.4 1.3,22.9 1.6,22.2 C1.9,21.5 2,21 2,20.8 L2,13.9 C2,13.4 1.7,12.9 1.1,12.3 C0.5,11.7 0.2,11.3 0.2,11.2 C0.2,11.1 0.4,10.3 0.9,9 C1,8.8 1.2,8.6 1.5,8.4 C1.8,8.1 2.1,8 2.2,8 C2.5,8 3.4,8.4 5,9.1 C6.5,9.8 7.3,10.2 7.3,10.4 C7.3,10.6 7.3,10.8 7.2,11.2 C7.1,11.5 7.1,11.8 7.1,11.9 C7,13 6.9,14 6.9,14.9 L6.9,19.3 L7,19.5 C6.9,19.7 6.9,19.9 6.9,20.2 C6.9,20.9 7,21.3 7.3,21.6 C7.4,21.7 7.8,21.9 8.6,22.4 C8.8,22.5 8.9,22.5 9.1,22.5 C9.4,22.5 9.8,22.3 10.2,21.8 C10.6,21.4 10.9,21 11,20.6 C11,20.1 11,18.6 11.1,16.3 L11.2,12 C11.2,11.8 11.1,11.2 11,10.4 C10.8,9.6 10.7,9.2 10.6,9.1 L10.6,8.9 C10.6,8.6 10.8,8.5 11.2,8.5 L16.3,8.5 C16.3,8.2 16.5,8.3 16.5,8.6 Z" id="Shape"></path>
                <path d="M31.7,13 C31.7,13.6 31.3,14.1 30.6,14.6 C29.9,15.4 28.6,16.7 26.6,18.7 L25.1,20.1 L25,20.6 C26.1,21.1 26.8,21.4 27.1,21.5 C27.5,21.6 27.7,21.7 27.8,21.7 C28.8,21.8 29.5,21.9 29.8,22 C30.4,22.2 30.7,22.4 30.7,22.7 C30.7,23.1 30.4,23.8 29.7,24.6 C29.3,25.1 28.8,25.7 28.3,26.3 C28.1,26.4 28,26.4 27.7,26.4 C27.4,26.4 27.1,26.3 26.8,26.1 C25.2,25.2 23.2,24.5 20.7,24.2 C19.9,24 19.4,23.6 19.4,23 C19.9,21.8 20.2,19.6 20.2,16.5 C20.2,15.6 20.2,14.6 20.1,13.8 C20.1,13.6 20,13.2 19.9,12.7 C19.8,12.2 19.7,11.8 19.7,11.6 C19.7,11.2 20.2,10.7 21.3,10.3 C22,10 22.8,9.7 23.5,9.5 C24.8,8.9 25.8,8.3 26.7,7.6 L26.8,7.6 C27.2,7.6 27.6,8 28.1,8.7 C28.3,9 28.5,9.5 28.8,10.1 C28.9,10.3 29.4,10.7 30.4,11.4 C31.3,11.8 31.7,12.4 31.7,13 Z M28.2,15.4 C28,15 27.6,14.4 26.9,13.6 C26.2,12.8 25.7,12.3 25.3,12.2 L25.2,12.2 C25.2,12.6 25.2,13.1 25.2,13.9 C25.2,14.7 25.2,15.2 25.2,15.6 L25.2,17.6 C25.2,17.9 25.2,18.1 25.3,18.4 C25.7,18.4 26.2,18 27,17.2 C27.6,16.4 28,15.8 28.2,15.4 Z" id="Shape"></path>
                <path d="M61.9,11.2 C61.9,11.5 61.8,11.9 61.5,12.3 C61.4,13.3 61.3,14.5 61.3,16 L61.3,19.3 C61.3,20.4 61.3,21.2 61.4,21.5 C61.4,21.7 61.4,21.9 61.5,22.3 C61.6,22.7 61.6,22.9 61.6,23.1 L61.3,23.6 C60,24 59.3,24.3 58.9,24.5 C58.3,24.8 57.6,25.2 56.8,25.7 C55.5,26.5 54.7,27 54.3,27.2 L51.5,25.9 C49.6,25 48.4,24.6 47.8,24.6 C47.3,24.6 47,24.5 46.8,24.2 C46.7,23.8 46.7,23.5 46.7,23.2 C46.7,23 46.8,22.7 46.9,22.3 C47,21.9 47.1,21.6 47.1,21.5 C47.2,20.8 47.2,19.3 47.2,16.8 C47.2,16.4 47.1,15.9 47,15.2 C46.9,14.5 46.8,14 46.8,13.6 C46.8,13.4 46.7,13.1 46.6,12.8 C46.5,12.4 46.4,12.1 46.4,12 C46.4,11 47,10.5 48.1,10.5 C50.2,9.7 51.6,9.1 52.1,8.7 C52.4,8.5 52.9,8.2 53.5,7.7 C53.7,7.6 53.8,7.6 53.9,7.6 C54.2,7.6 54.5,7.8 55,8.1 L55.8,8.6 C56.1,8.7 56.8,9 57.8,9.4 C58.4,9.7 59.4,10 60.9,10.3 C61.7,10.3 61.9,10.7 61.9,11.2 Z M56.5,22.5 C56.5,19.7 56.4,16.7 56.3,13.4 C56.2,13.2 54.8,12.5 52.3,11.3 L52.1,11.3 C52,11.7 52,12.1 52,12.5 L52,15.2 C52,15.6 52,16.5 52.1,18 L52.1,20.8 C52.3,21.1 52.6,21.3 53.1,21.4 C53.3,21.4 53.8,21.7 54.8,22.1 C55.7,22.5 56.1,22.7 56.3,22.7 L56.5,22.5 Z" id="Shape"></path>
                <path d="M72.5,23.2 C72.5,23.7 72.3,24.5 71.8,25.4 C71.3,26.5 70.9,27 70.4,27 C69.7,26.6 68.8,26 67.8,25.3 L66.1,24.4 C65.9,24.3 65.7,24.3 65.4,24.2 C65.3,24.1 65.2,23.9 65.2,23.6 C65.2,23.2 65.3,22.8 65.5,22.5 C65.7,21.2 65.8,19.8 65.8,18.2 C65.8,17.8 65.8,17.3 65.7,16.6 C65.7,15.9 65.6,15.4 65.6,15 C65.6,14.6 65.6,14 65.7,13.2 C65.8,12.4 65.8,11.8 65.8,11.4 L65.8,3.3 C65.8,3.1 65.7,2.8 65.6,2.3 C65.4,1.9 65.4,1.5 65.4,1.3 C65.4,1 65.5,0.8 65.6,0.7 L66,0.7 C66.2,0.7 66.5,0.7 67,0.8 C67.5,0.9 67.7,0.9 68,0.9 C68.1,0.9 68.4,0.9 68.8,0.8 C69,0.8 69.1,0.9 69.3,0.9 C69.5,0.9 69.7,0.9 70.1,0.8 C70.5,0.7 70.7,0.7 70.9,0.7 L71.3,0.7 C71.4,0.7 71.5,0.8 71.6,0.9 L71.6,1.4 C71.6,1.6 71.5,2.2 71.4,3 L71.1,4.3 L71,18.2 C71,18.4 71,18.7 70.9,19 C70.9,19.4 70.8,19.6 70.8,19.8 C70.8,20.5 71.1,21.1 71.7,21.6 C72.2,22.3 72.5,22.7 72.5,23.2 Z" id="Shape"></path>
                <path d="M91.1,10.3 C91.1,10.7 91,11.4 90.7,12.3 C90.5,13.2 90.3,13.9 90.3,14.3 C90.3,14.5 90.3,14.7 90.4,15 C90.3,15.3 90.3,16 90.3,17.2 C90.3,18.4 90.5,19.6 90.8,20.8 C90.9,21.3 91,21.7 91,22.1 C91,22.7 90.1,23.3 88.2,24 C85.7,25.7 84.2,26.5 83.8,26.5 C83.6,26.5 83.3,26.4 82.9,26.3 C82.5,26.2 82.3,26 82.2,25.9 C81.7,25.6 80.3,25.1 77.8,24.4 L75.6,23.8 C75.4,23.8 75.3,23.7 75.3,23.4 C75.3,23.7 75.6,22.8 76.1,20.7 C76.4,19.3 76.6,17.8 76.6,16 C76.6,15.8 76.5,15 76.3,13.4 C76.1,11.8 76,11 75.9,11 C77.2,10.5 78.6,9.8 80.1,9 C80,8.8 79.3,8.4 78,7.7 C76.7,7 76,6.6 76,6.5 C76,6 76.1,5.2 76.4,4.1 C76.7,3 76.8,2.2 76.8,1.7 C76.8,1.3 76.8,1.1 76.8,1 C76.8,0.8 77,0.7 77.3,0.7 C77.7,0.7 78.3,1.1 78.9,2 C79.5,2.4 80.1,2.9 80.7,3.5 C81.3,4.5 83.8,6.1 88.1,8.4 C89.8,9.2 90.8,9.8 91.1,10.3 Z M85.7,21.4 C85.5,21.2 85.5,20.2 85.5,18.6 C85.5,18 85.5,17.1 85.6,15.9 C85.7,14.7 85.7,13.8 85.7,13.2 C85.7,12.7 85.2,12 84.1,11.2 C83,10.3 82.2,9.9 81.7,9.9 C81.4,9.9 81.3,10.1 81.3,10.4 L81.3,16.4 L81.4,16.6 C81.4,16.9 81.4,17.3 81.3,17.9 C81.2,18.5 81.2,18.9 81.2,19.2 L81.2,19.9 L81.1,20.2 C81.1,20.6 82.1,21.1 84,21.7 C84,21.7 84.2,21.8 84.5,21.9 C84.8,22 85,22.1 85.2,22.1 C85.4,22.1 85.6,21.9 85.7,21.4 Z" id="Shape"></path>
                <path d="M106.2,13 C106.2,13.6 105.8,14.1 105.1,14.6 C104.4,15.4 103.1,16.7 101.1,18.7 L99.6,20.1 L99.5,20.6 C100.6,21.1 101.3,21.4 101.6,21.5 C102,21.6 102.2,21.7 102.3,21.7 C103.3,21.8 104,21.9 104.3,22 C104.9,22.2 105.2,22.4 105.2,22.7 C105.2,23.1 104.9,23.8 104.2,24.6 C103.8,25.1 103.3,25.7 102.8,26.3 C102.6,26.4 102.5,26.4 102.2,26.4 C101.9,26.4 101.6,26.3 101.3,26.1 C99.7,25.2 97.7,24.5 95.2,24.2 C94.4,24 93.9,23.6 93.9,23 C94.4,21.8 94.7,19.6 94.7,16.5 C94.7,15.6 94.7,14.6 94.6,13.8 C94.6,13.6 94.5,13.2 94.4,12.7 C94.3,12.2 94.2,11.8 94.2,11.6 C94.2,11.2 94.7,10.7 95.8,10.3 C96.5,10 97.3,9.7 98,9.5 C99.3,8.9 100.3,8.3 101.2,7.6 L101.3,7.6 C101.7,7.6 102.1,8 102.6,8.7 C102.8,9 103,9.5 103.3,10.1 C103.4,10.3 103.9,10.7 104.9,11.4 C105.9,11.8 106.2,12.4 106.2,13 Z M102.8,15.4 C102.6,15 102.2,14.4 101.5,13.6 C100.8,12.8 100.3,12.3 99.9,12.2 L99.8,12.2 C99.8,12.6 99.8,13.1 99.8,13.9 C99.8,14.7 99.8,15.2 99.8,15.6 L99.8,17.6 C99.8,17.9 99.8,18.1 99.9,18.4 C100.3,18.4 100.8,18 101.6,17.2 C102.2,16.4 102.6,15.8 102.8,15.4 Z" id="Shape"></path>
                <path d="M127.2,23.8 C127.2,24 126.8,24.6 126.1,25.6 C125.4,26.6 124.9,27.1 124.7,27.3 C124.5,27.3 123.9,26.9 123,26.2 C122,25.6 121.3,25.1 121,24.7 C120.4,24.1 120.1,23.3 120.1,22.4 C120.1,21.8 120.1,20.8 120.2,19.5 C120.3,18.2 120.3,17.3 120.3,16.6 C120.3,16.3 120.3,15.8 120.3,15.2 C120.3,14.6 120.3,14.1 120.3,13.8 C120.2,13.6 119.9,13.3 119.4,13 C118.9,12.7 118.5,12.5 118.2,12.5 C117.9,12.5 117.5,12.9 116.9,13.6 C116.3,14.3 116,14.8 115.9,15.2 C115.9,15.4 115.9,15.7 115.9,16.1 C115.9,16.5 115.9,16.8 115.9,17 L115.9,23.2 C116,23.4 116.1,23.8 116.2,24.6 C116.3,25.4 116.4,25.9 116.4,26.2 C116.4,26.5 116.4,26.6 116.3,26.7 C116.2,26.8 116.1,26.8 115.8,26.8 C115.6,26.8 115.2,26.8 114.8,26.7 C114.3,26.6 114,26.6 113.8,26.6 C114.1,26.6 113.9,26.6 113.2,26.6 C112.5,26.6 112.1,26.6 111.9,26.6 L111.6,26.6 C111.2,26.6 110.9,26.5 110.8,26.4 L110.8,26 C110.8,25.8 110.9,25.3 111,24.5 C111.1,23.7 111.2,23.2 111.2,23 C111.3,22.5 111.3,21.6 111.3,20.4 L111.3,16 C111.3,15 111.2,14.4 111.1,14.1 C110.9,13.7 110.4,13.3 109.6,12.9 C109.1,12.6 108.8,12.3 108.8,12 C108.8,11.5 109.3,10.7 110.2,9.7 C110.3,9.3 110.4,9 110.5,8.8 C110.7,8.3 111,8 111.3,8 C111.5,8 112,8.3 112.8,9 C113.8,9.4 114.4,9.8 114.8,10.1 C115.4,10.6 115.7,11.2 115.8,11.9 C115.9,12.3 116,12.6 116.1,12.6 C116.3,12.6 116.9,11.8 118.1,10.3 C119.3,8.8 119.9,8 120,8 C120.3,8 120.8,8.2 121.6,8.7 C122.2,9.1 122.5,9.3 122.5,9.3 C123.2,9.6 124.1,9.9 125.4,10.3 C125.7,10.5 125.8,10.8 125.8,11.1 C125.8,11.6 125.7,12.3 125.5,13.3 C125.3,14.3 125.2,15 125.2,15.5 C125.2,15.6 125.2,15.7 125.3,15.8 C125.2,17.3 125.2,18.3 125.2,18.7 C125.2,19.9 125.2,20.6 125.3,21 C125.5,21.7 125.9,22.3 126.7,22.6 C126.9,22.9 127.2,23.3 127.2,23.8 Z" id="Shape"></path>
            </g>
            <g id="Group" transform="translate(22.000000, 35.000000)" fill="#FDEB19">
                <path d="M15.9,15.8 C15.9,16.1 15.8,16.6 15.7,17.2 C15.6,17.8 15.5,18.2 15.5,18.5 L15.5,20.9 C15.5,21.2 15.5,21.7 15.6,22.3 C15.7,22.9 15.7,23.3 15.7,23.7 C15.7,24 15.5,24.2 15,24.4 C14.6,24.5 14.4,24.6 14.2,24.6 C13.6,24.8 12.9,25.2 11.9,25.9 C10.9,26.6 10.1,27 9.6,27.2 L9.3,27.2 C9,27.2 8.5,27.1 7.6,26.8 C6.5,26.5 5.9,26.3 5.7,26.3 C4.8,26.1 4.1,26.1 3.7,26.1 C2.6,26.1 1.7,26.3 0.8,26.6 C0.3,26.6 5.68434189e-14,26.4 5.68434189e-14,26.1 C5.68434189e-14,26 0.4,25.4 1.3,24.2 C2.2,23 2.7,22.4 2.9,22.3 C3.1,22.2 3.8,22.1 5.1,22 C5.3,21.8 5.7,21.3 6.3,20.5 C6.9,19.7 7.2,19.1 7.2,18.8 C7.1,18.8 7,18.8 6.8,18.8 L5,18.8 C3.1,18.8 1.9,18.9 1.5,19.1 L1.4,19.1 C1.2,19.1 1.1,19 1,18.8 C1,18.6 1,18.3 1.1,17.9 C1.2,17.5 1.2,17.2 1.2,17 C1.3,16.7 1.3,15.7 1.3,14.2 C1.3,13.9 1.3,13.4 1.2,12.7 C1.1,12 1.1,11.5 1.1,11.2 L1.1,10.8 C1.4,10.6 1.6,10.5 1.9,10.3 L6.5,8.3 C6.9,8.1 7.2,7.9 7.4,7.7 L7.9,7.7 C8.3,7.7 9.1,7.9 10.4,8.3 C11.7,8.7 12.5,9 12.9,9 C13.1,9 13.3,8.8 13.7,8.3 C14.1,7.8 14.4,7.6 14.5,7.6 C14.8,7.6 14.9,7.6 14.9,7.7 L14.9,7.8 C14.9,8.2 14.7,8.8 14.2,9.5 L13.4,10.8 C13.2,11.1 12.7,11.8 11.9,13 C11.1,14.2 10.8,14.9 10.8,15 L10.8,15.1 C11.3,15.2 11.9,15.3 12.3,15.3 C12.4,15.3 13,15.3 14,15.2 L15.5,15.2 L15.6,15.7 L15.6,15.8 L15.9,15.8 Z M10.9,12.8 L10.8,12.6 C10.3,12.4 9.5,12.1 8.4,11.7 L6,10.8 C6,11.1 6,11.6 6.1,12.2 C6.2,12.8 6.2,13.3 6.2,13.6 C6.2,13.6 6.2,13.8 6.1,14.2 L6.1,14.4 C6.1,14.6 6.1,14.7 6.1,14.8 C6.3,15 6.9,15.1 8,15.1 L9.1,15.1 C9.9,14.7 10.5,13.9 10.9,12.8 Z M10.8,18.9 C10.8,18.8 10.7,18.7 10.6,18.6 L8.9,18.6 C8.6,18.7 8.2,19.2 7.7,20 C7.1,20.8 6.9,21.3 6.9,21.6 L6.9,21.9 L7.1,22 C7.4,22 8,22.2 9,22.5 L10.5,22.9 L10.8,22.8 C10.8,22.4 10.8,21.8 10.8,20.9 C10.8,19.9 10.8,19.3 10.8,18.9 Z" id="Shape"></path>
                <path d="M28.5,11.4 C28.5,11.7 28.3,11.9 27.9,11.9 C27.7,11.9 27.5,11.9 27.2,11.8 C26.9,11.8 26.7,11.7 26.5,11.7 L25.9,11.7 C25.7,12 25.6,12.3 25.6,12.7 C25.6,13 25.6,13.5 25.7,14.2 C25.7,14.8 25.8,15.3 25.8,15.7 C25.8,16 25.8,16.9 25.8,18.3 L25.7,20.9 C25.8,21.1 26.2,21.3 27,21.7 C27.8,22.1 28.3,22.3 28.4,22.5 C28.4,22.8 28.1,23.5 27.4,24.8 C26.8,26 26.3,26.6 26.2,26.6 C25.9,26.6 25.5,26.4 24.9,26 C24,25.4 23.4,25 22.9,24.7 C22.3,24.4 21.7,24.2 21.2,23.9 C20.2,23.4 19.7,23.1 19.7,22.8 C19.7,22.7 19.8,22.4 20,21.7 C20.2,21.1 20.3,20.8 20.4,20.7 C20.7,20.2 20.8,19.5 20.8,18.7 L20.8,11.7 L20.6,11.5 C20,11.5 19.7,11.5 19.7,11.5 C19.3,11.5 19.1,11.2 19,10.8 C19,10.9 19,10.5 19,9.6 C19,9 19.1,8.6 19.3,8.5 L19.6,8.5 C19.7,8.5 19.8,8.5 20,8.6 C20.2,8.6 20.3,8.7 20.3,8.7 C20.5,8.7 20.7,8.4 20.7,7.9 C20.7,7.7 20.6,7.6 20.6,7.5 C20.6,7.1 20.5,6.5 20.4,5.7 C20.2,5 20.2,4.5 20.2,4.3 C20.2,4 20.5,3.8 21.2,3.8 L23.6,3.8 C23.8,3.8 24.2,3.8 24.7,3.7 C25.2,3.6 25.5,3.6 25.8,3.6 C26.3,3.6 26.5,3.9 26.5,4.4 C26.5,4.7 26.4,5.2 26.3,6 C26.2,6.8 26.1,7.2 26.1,7.6 C26.1,8.1 26.2,8.5 26.3,8.9 L27.9,8.9 C28.1,8.8 28.2,8.7 28.4,8.7 C28.6,8.7 28.8,8.8 28.9,9 L28.9,11.4 L28.5,11.4 Z" id="Shape"></path>
                <path d="M50,22.8 C50,23.1 49.5,23.9 48.4,25.2 C48.2,26 47.9,26.5 47.6,26.7 C47.1,26.7 46.6,26.6 46.2,26.3 C45.4,25.8 44.9,25.4 44.5,25.2 C43.7,24.8 43.2,24.4 42.8,23.9 C42.7,23.8 42.5,23.3 42.2,22.5 C42.2,22.4 42.1,22.3 42.1,22.3 L41.6,22.7 C41.6,22.7 41,23.4 40,24.7 L38.5,26.6 C38.4,26.7 38.3,26.7 38.2,26.7 C37.8,26.7 37,26.3 36,25.5 C35.5,25.3 34.4,24.8 32.6,24.2 C32.4,24 32.3,23.8 32.3,23.4 C32.3,23.2 32.4,22.7 32.7,22.1 C33,21.5 33.1,21 33.1,20.8 L33.1,13.3 C33.1,13 32.7,12.7 31.8,12.3 C31,11.9 30.5,11.6 30.5,11.4 C30.5,11.2 30.6,11 30.7,10.8 C31,10.3 31.5,9.6 32.2,8.6 C32.7,7.8 33.1,7.3 33.3,7.3 C33.7,7.3 34.2,7.5 34.9,8 L36.5,9.1 C36.8,9.3 37.3,9.5 38,9.8 C38.4,10 38.7,10.2 38.7,10.4 C38.7,10.7 38.6,11.2 38.5,12.1 L38.3,13.3 C38.1,15 38,16.3 38,17.3 C38,19.1 38,20.1 38.1,20.4 C38.3,21.1 38.9,21.7 39.9,22.3 L40.3,22.3 C41,21.6 41.6,20.8 42.2,20 C42.4,19.6 42.5,18.4 42.5,16.2 L42.5,13.9 C42.5,12.5 42.4,11.2 42.2,10.1 C42.2,10.1 42.1,9.8 41.9,9.3 C41.7,8.9 41.7,8.7 41.7,8.5 C41.7,8.3 41.8,8.2 41.9,8.1 C42.3,8.1 42.8,8.2 43.5,8.3 C44.2,8.4 44.7,8.5 45.1,8.5 C45.8,8.5 46.5,8.5 47.1,8.4 C47.4,8.2 47.7,8.1 48.1,8.1 L48.3,8.2 L48.3,8.6 C48.3,8.9 48.1,9.7 47.7,11 C47.4,12.6 47.3,15.5 47.3,19.6 C47.3,20.3 47.5,20.8 47.8,21.2 C48,21.4 48.5,21.7 49.3,22.1 C49.8,22.2 50,22.5 50,22.8 Z" id="Shape"></path>
                <path d="M63,3.1 C63,3.3 62.7,3.8 62.1,4.5 C61.3,6 60.8,6.7 60.5,6.7 C60.5,6.7 60,6.3 59.1,5.4 C58.2,4.6 57.7,4.1 57.5,4 L57.2,4.1 C57.8,6.2 58.2,7.7 58.6,8.8 C58.8,8.9 59.2,8.9 59.7,8.9 C59.9,8.9 60.3,8.9 61,8.9 L62.1,8.9 C62.2,9 62.3,9.1 62.3,9.4 C62.3,10.9 62.1,11.6 61.8,11.6 L59.1,11.6 C59,11.8 58.9,11.9 58.9,12 C58.9,21.6 58.6,26.8 58.1,27.5 C55.7,29.6 54.3,30.6 53.8,30.6 C53.4,30.6 53.3,30.5 53.3,30.2 C53.3,30.1 53.3,29.9 53.4,29.6 C53.5,29.3 53.5,29.1 53.5,29 C53.7,27.6 53.9,26.2 54,24.6 C54.1,23.3 54.1,22 54.1,20.5 L54,15.6 C54,14.5 54,13.9 53.9,13.8 L53.9,11.6 L53.6,11.5 C53.3,11.5 53.1,11.6 52.8,11.6 L52.6,11.6 C52.2,11.6 51.9,11.5 51.9,11.2 L51.9,9.2 L52.1,9 L52.4,9 C52.5,9 52.6,9 52.7,9 C53,9 53.4,9 53.7,8.9 L53.7,8.3 C53.7,7.9 53.5,7.1 53.2,6.1 C52.9,5.1 52.6,4.3 52.4,3.9 L52.5,3.7 C53.1,3.4 54.1,2.9 55.3,2.2 C57.1,1.3 58.1,0.6 58.4,0.2 L59.2,0.2 C59.7,0.8 60.9,1.6 62.9,2.6 C63,2.7 63,2.9 63,3.1 Z" id="Shape"></path>
                <path d="M74.7,3.1 C74.7,3.3 74.4,3.8 73.8,4.5 C73,6 72.5,6.7 72.2,6.7 C72.2,6.7 71.7,6.3 70.8,5.4 C69.9,4.6 69.4,4.1 69.2,4 L68.9,4.1 C69.5,6.2 69.9,7.7 70.3,8.8 C70.5,8.9 70.9,8.9 71.4,8.9 C71.6,8.9 72,8.9 72.7,8.9 L73.8,8.9 C73.9,9 74,9.1 74,9.4 C74,10.9 73.8,11.6 73.5,11.6 L70.8,11.6 C70.7,11.8 70.6,11.9 70.6,12 C70.6,21.6 70.3,26.8 69.8,27.5 C67.4,29.6 66,30.6 65.5,30.6 C65.1,30.6 65,30.5 65,30.2 C65,30.1 65,29.9 65.1,29.6 C65.2,29.3 65.2,29.1 65.2,29 C65.4,27.6 65.6,26.2 65.7,24.6 C65.8,23.3 65.8,22 65.8,20.5 L65.7,15.6 C65.7,14.5 65.7,13.9 65.6,13.8 L65.6,11.6 L65.3,11.5 C65,11.5 64.8,11.6 64.5,11.6 L64.3,11.6 C63.9,11.6 63.6,11.5 63.6,11.2 L63.6,9.2 L63.8,9 L64.1,9 C64.2,9 64.3,9 64.4,9 C64.7,9 65.1,9 65.4,8.9 L65.4,8.3 C65.4,7.9 65.2,7.1 64.9,6.1 C64.6,5.1 64.3,4.3 64.1,3.9 L64.2,3.7 C64.8,3.4 65.8,2.9 67,2.2 C68.8,1.3 69.8,0.6 70.1,0.2 L70.9,0.2 C71.4,0.8 72.6,1.6 74.6,2.6 C74.7,2.7 74.7,2.9 74.7,3.1 Z" id="Shape"></path>
                <path d="M87.7,13 C87.7,13.6 87.3,14.1 86.6,14.6 C85.9,15.4 84.6,16.7 82.6,18.7 L81.1,20.1 L81,20.6 C82.1,21.1 82.8,21.4 83.1,21.5 C83.5,21.6 83.7,21.7 83.8,21.7 C84.8,21.8 85.5,21.9 85.8,22 C86.4,22.2 86.7,22.4 86.7,22.7 C86.7,23.1 86.4,23.8 85.7,24.6 C85.3,25.1 84.8,25.7 84.3,26.4 C84.1,26.5 84,26.5 83.7,26.5 C83.4,26.5 83.1,26.4 82.8,26.2 C81.2,25.3 79.2,24.6 76.7,24.3 C75.9,24.1 75.4,23.7 75.4,23.1 C75.9,21.9 76.2,19.7 76.2,16.6 C76.2,15.7 76.2,14.7 76.1,13.9 C76.1,13.7 76,13.3 75.9,12.8 C75.8,12.3 75.7,11.9 75.7,11.7 C75.7,11.3 76.2,10.8 77.3,10.4 C78,10.1 78.8,9.8 79.5,9.6 C80.8,9 81.8,8.4 82.7,7.7 L82.8,7.7 C83.2,7.7 83.6,8.1 84.1,8.8 C84.3,9.1 84.5,9.6 84.8,10.2 C84.9,10.4 85.4,10.8 86.4,11.5 C87.4,11.8 87.7,12.4 87.7,13 Z M84.3,15.4 C84.1,15 83.7,14.4 83,13.6 C82.3,12.8 81.8,12.3 81.4,12.2 L81.3,12.2 C81.3,12.6 81.3,13.1 81.3,13.9 C81.3,14.7 81.3,15.2 81.3,15.6 L81.3,17.6 C81.3,17.9 81.3,18.1 81.4,18.4 C81.8,18.4 82.3,18 83.1,17.2 C83.7,16.4 84.1,15.8 84.3,15.4 Z" id="Shape"></path>
            </g>
            <g id="Group" fill="#FFFFFF">
                <path d="M17.1,7.9 C17.1,8.4 17,9 16.8,9.5 C16.5,11.7 16.3,14.2 16.3,17 C16.3,18.8 16.4,19.8 16.5,20 C16.5,20.3 16.5,21.1 16.5,22.5 L16.4,25 L16.3,25.3 C16.3,25.5 16.3,25.7 16.4,26.1 C16.4,26.4 16.5,26.7 16.5,26.9 C16.5,27.3 16.5,27.6 16.4,27.8 C16.6,28.4 16.7,28.8 16.7,28.9 C16.7,29.4 16.5,29.8 16,30.1 C15.7,30.2 15.3,30.3 14.6,30.4 C13.9,30.5 13.5,30.6 13.2,30.7 C12.3,31.1 11.8,31.4 11.6,31.4 C11.3,31.4 11.2,31.2 11.2,30.8 C11.2,30.4 11.3,29.9 11.4,29.2 C11.5,28.5 11.6,27.9 11.6,27.6 L11.6,27.5 C11.5,27.4 11.5,27.2 11.5,26.8 C11.5,25.3 11.5,24.5 11.6,24.4 L11.6,24.5 C11.6,24.3 11.6,24 11.5,23.5 C11.4,23 11.4,22.7 11.5,22.5 L11.5,21.9 L11.3,21.8 L11.1,21.9 L7.9,26.1 C7.7,26.1 7.5,26.2 7.5,26.2 C7.2,26.2 6.6,25.8 5.7,25.1 C3.2,24 2,23.4 1.9,23.4 C1.8,23.2 1.8,23.1 1.8,22.9 C1.8,22.7 1.9,22.2 2.2,21.5 C2.5,20.8 2.6,20.3 2.6,20.1 L2.6,13 C2.6,12.5 2.3,12 1.7,11.4 C1.1,10.8 0.8,10.4 0.8,10.3 C0.8,10.2 1,9.4 1.5,8.1 C1.6,7.9 1.8,7.7 2.1,7.5 C2.4,7.2 2.7,7.1 2.8,7.1 C3.1,7.1 4,7.5 5.6,8.2 C7.1,8.9 7.9,9.3 7.9,9.5 C7.9,9.7 7.9,9.9 7.8,10.3 C7.7,10.6 7.7,10.9 7.7,11 C7.6,12.1 7.5,13.1 7.5,14 L7.5,18.4 L7.6,18.6 C7.5,18.8 7.5,19 7.5,19.3 C7.5,20 7.6,20.4 7.9,20.7 C8,20.8 8.4,21 9.2,21.5 C9.4,21.6 9.5,21.6 9.7,21.6 C10,21.6 10.4,21.4 10.8,20.9 C11.2,20.5 11.5,20.1 11.6,19.7 C11.6,19.2 11.6,17.7 11.7,15.4 L11.8,11.1 C11.8,10.9 11.7,10.3 11.6,9.5 C11.4,8.7 11.3,8.3 11.2,8.2 L11.2,8 C11.2,7.7 11.4,7.6 11.8,7.6 L16.9,7.6 C16.9,7.5 17.1,7.6 17.1,7.9 Z" id="Shape"></path>
                <path d="M32.2,12.3 C32.2,12.9 31.8,13.4 31.1,13.9 C30.4,14.7 29.1,16 27.1,18 L25.6,19.4 L25.5,19.9 C26.6,20.4 27.3,20.7 27.6,20.8 C28,20.9 28.2,21 28.3,21 C29.3,21.1 30,21.2 30.3,21.3 C30.9,21.5 31.2,21.7 31.2,22 C31.2,22.4 30.9,23.1 30.2,23.9 C29.8,24.4 29.3,25 28.8,25.6 C28.6,25.7 28.5,25.7 28.2,25.7 C27.9,25.7 27.6,25.6 27.3,25.4 C25.7,24.5 23.7,23.8 21.2,23.5 C20.4,23.3 19.9,22.9 19.9,22.3 C20.4,21.1 20.7,18.9 20.7,15.8 C20.7,14.9 20.7,13.9 20.6,13.1 C20.6,12.9 20.5,12.5 20.4,12 C20.3,11.5 20.2,11.1 20.2,10.9 C20.2,10.5 20.7,10 21.8,9.6 C22.5,9.3 23.3,9 24,8.8 C25.3,8.2 26.3,7.6 27.2,6.9 L27.3,6.9 C27.7,6.9 28.1,7.3 28.6,8 C28.8,8.3 29,8.8 29.3,9.4 C29.4,9.6 29.9,10 30.9,10.7 C31.9,11.1 32.2,11.7 32.2,12.3 Z M28.8,14.7 C28.6,14.3 28.2,13.7 27.5,12.9 C26.8,12.1 26.3,11.6 25.9,11.5 L25.8,11.5 C25.8,11.9 25.8,12.4 25.8,13.2 C25.8,14 25.8,14.5 25.8,14.9 L25.8,16.9 C25.8,17.2 25.8,17.4 25.9,17.7 C26.3,17.7 26.8,17.3 27.6,16.5 C28.2,15.7 28.6,15.1 28.8,14.7 Z" id="Shape"></path>
                <path d="M62.5,10.5 C62.5,10.8 62.4,11.2 62.1,11.6 C62,12.6 61.9,13.8 61.9,15.3 L61.9,18.6 C61.9,19.7 61.9,20.5 62,20.8 C62,21 62,21.2 62.1,21.6 C62.2,22 62.2,22.2 62.2,22.4 L61.9,22.9 C60.6,23.3 59.9,23.6 59.5,23.8 C58.9,24.1 58.2,24.5 57.4,25 C56.1,25.8 55.3,26.3 54.9,26.5 L52.1,25.2 C50.2,24.3 49,23.9 48.4,23.9 C47.9,23.9 47.6,23.8 47.4,23.5 C47.3,23.1 47.3,22.8 47.3,22.5 C47.3,22.3 47.4,22 47.5,21.6 C47.6,21.2 47.7,20.9 47.7,20.8 C47.8,20.1 47.8,18.6 47.8,16.1 C47.8,15.7 47.7,15.2 47.6,14.5 C47.5,13.8 47.4,13.3 47.4,12.9 C47.4,12.7 47.3,12.4 47.2,12.1 C47.1,11.7 47,11.4 47,11.3 C47,10.3 47.6,9.8 48.7,9.8 C50.8,9 52.2,8.4 52.7,8 C53,7.8 53.5,7.5 54.1,7 C54.3,6.9 54.4,6.9 54.5,6.9 C54.8,6.9 55.1,7.1 55.6,7.4 L56.4,7.9 C56.7,8 57.4,8.3 58.4,8.7 C59,9 60,9.3 61.5,9.6 C62.2,9.6 62.5,9.9 62.5,10.5 Z M57.1,21.8 C57.1,19 57,16 56.9,12.7 C56.8,12.5 55.4,11.8 52.9,10.6 L52.7,10.6 C52.6,11 52.6,11.4 52.6,11.8 L52.6,14.5 C52.6,14.9 52.6,15.8 52.7,17.3 L52.7,20.1 C52.9,20.4 53.2,20.6 53.7,20.7 C53.9,20.7 54.4,21 55.4,21.4 C56.3,21.8 56.7,22 56.9,22 L57.1,21.8 Z" id="Shape"></path>
                <path d="M73.1,22.5 C73.1,23 72.9,23.8 72.4,24.7 C71.9,25.8 71.5,26.3 71,26.3 C70.3,25.9 69.4,25.3 68.4,24.6 L66.7,23.7 C66.5,23.6 66.3,23.6 66,23.5 C65.9,23.4 65.8,23.2 65.8,22.9 C65.8,22.5 65.9,22.1 66.1,21.8 C66.3,20.5 66.4,19.1 66.4,17.5 C66.4,17.1 66.4,16.6 66.3,15.9 C66.3,15.2 66.2,14.7 66.2,14.3 C66.2,13.9 66.2,13.3 66.3,12.5 C66.4,11.7 66.4,11.1 66.4,10.7 L66.4,2.6 C66.4,2.4 66.3,2.1 66.2,1.6 C66,1.2 66,0.8 66,0.6 C66,0.3 66.1,0.1 66.2,-1.13686838e-13 L66.6,-1.13686838e-13 C66.8,-1.13686838e-13 67.1,-1.13686838e-13 67.6,0.1 C68.1,0.2 68.3,0.2 68.6,0.2 C68.7,0.2 69,0.2 69.4,0.1 C69.6,0.1 69.7,0.2 69.9,0.2 C70.1,0.2 70.3,0.2 70.7,0.1 C71.1,-1.13686838e-13 71.3,-1.13686838e-13 71.5,-1.13686838e-13 L71.9,-1.13686838e-13 C72,-1.13686838e-13 72.1,0.1 72.2,0.2 L72.2,0.7 C72.2,0.9 72.1,1.5 72,2.3 L71.7,3.6 L71.6,17.5 C71.6,17.7 71.6,18 71.5,18.3 C71.5,18.7 71.4,18.9 71.4,19.1 C71.4,19.8 71.7,20.4 72.3,20.9 C72.8,21.6 73.1,22 73.1,22.5 Z" id="Shape"></path>
                <path d="M91.7,9.6 C91.7,10 91.6,10.7 91.3,11.6 C91.1,12.5 90.9,13.2 90.9,13.6 C90.9,13.8 90.9,14 91,14.3 C90.9,14.6 90.9,15.3 90.9,16.5 C90.9,17.7 91.1,18.9 91.4,20.1 C91.5,20.6 91.6,21 91.6,21.4 C91.6,22 90.7,22.6 88.8,23.3 C86.3,25 84.8,25.8 84.4,25.8 C84.2,25.8 83.9,25.7 83.5,25.6 C83.1,25.5 82.9,25.3 82.8,25.2 C82.3,24.9 80.9,24.4 78.4,23.7 L76.2,23.1 C76,23.1 75.9,23 75.9,22.7 C75.9,23 76.2,22.1 76.7,20 C77,18.6 77.2,17.1 77.2,15.3 C77.2,15.1 77.1,14.3 76.9,12.7 C76.7,11.1 76.6,10.3 76.5,10.3 C77.8,9.8 79.2,9.1 80.7,8.3 C80.6,8.1 79.9,7.7 78.6,7 C77.3,6.3 76.6,5.9 76.6,5.8 C76.6,5.3 76.7,4.5 77,3.4 C77.3,2.3 77.4,1.5 77.4,1 C77.4,0.6 77.4,0.4 77.4,0.3 C77.4,0.1 77.6,1.13686838e-13 77.9,1.13686838e-13 C78.3,1.13686838e-13 78.9,0.4 79.5,1.3 C80.1,1.7 80.7,2.2 81.3,2.8 C81.9,3.8 84.4,5.4 88.7,7.7 C90.4,8.5 91.3,9.1 91.7,9.6 Z M86.3,20.7 C86.1,20.5 86.1,19.5 86.1,17.9 C86.1,17.3 86.1,16.4 86.2,15.2 C86.3,14 86.3,13.1 86.3,12.5 C86.3,12 85.8,11.3 84.7,10.5 C83.6,9.6 82.8,9.2 82.3,9.2 C82,9.2 81.9,9.4 81.9,9.7 L81.9,15.7 L82,15.9 C82,16.2 82,16.6 81.9,17.2 C81.8,17.8 81.8,18.2 81.8,18.5 L81.8,19.2 L81.7,19.5 C81.7,19.9 82.7,20.4 84.6,21 C84.6,21 84.8,21.1 85.1,21.2 C85.4,21.3 85.6,21.4 85.8,21.4 C86,21.4 86.2,21.2 86.3,20.7 Z" id="Shape"></path>
                <path d="M106.8,12.3 C106.8,12.9 106.4,13.4 105.7,13.9 C105,14.7 103.7,16 101.7,18 L100.2,19.4 L100.1,19.9 C101.2,20.4 101.9,20.7 102.2,20.8 C102.6,20.9 102.8,21 102.9,21 C103.9,21.1 104.6,21.2 104.9,21.3 C105.5,21.5 105.8,21.7 105.8,22 C105.8,22.4 105.5,23.1 104.8,23.9 C104.4,24.4 103.9,25 103.4,25.6 C103.2,25.7 103.1,25.7 102.8,25.7 C102.5,25.7 102.2,25.6 101.9,25.4 C100.3,24.5 98.3,23.8 95.8,23.5 C95,23.3 94.5,22.9 94.5,22.3 C95,21.1 95.3,18.9 95.3,15.8 C95.3,14.9 95.3,13.9 95.2,13.1 C95.2,12.9 95.1,12.5 95,12 C94.9,11.5 94.8,11.1 94.8,10.9 C94.8,10.5 95.3,10 96.4,9.6 C97.1,9.3 97.9,9 98.6,8.8 C99.9,8.2 100.9,7.6 101.8,6.9 L101.9,6.9 C102.3,6.9 102.7,7.3 103.2,8 C103.4,8.3 103.6,8.8 103.9,9.4 C104,9.6 104.5,10 105.5,10.7 C106.5,11.1 106.8,11.7 106.8,12.3 Z M103.4,14.7 C103.2,14.3 102.8,13.7 102.1,12.9 C101.4,12.1 100.9,11.6 100.5,11.5 L100.4,11.5 C100.4,11.9 100.4,12.4 100.4,13.2 C100.4,14 100.4,14.5 100.4,14.9 L100.4,16.9 C100.4,17.2 100.4,17.4 100.5,17.7 C100.9,17.7 101.4,17.3 102.2,16.5 C102.7,15.7 103.2,15.1 103.4,14.7 Z" id="Shape"></path>
                <path d="M127.7,23.1 C127.7,23.3 127.3,23.9 126.6,24.9 C125.9,25.9 125.4,26.4 125.2,26.6 C125,26.6 124.4,26.2 123.5,25.5 C122.5,24.9 121.8,24.4 121.5,24 C120.9,23.4 120.6,22.6 120.6,21.7 C120.6,21.1 120.6,20.1 120.7,18.8 C120.8,17.5 120.8,16.6 120.8,15.9 C120.8,15.6 120.8,15.1 120.8,14.5 C120.8,13.9 120.8,13.4 120.8,13.1 C120.7,12.9 120.4,12.6 119.9,12.3 C119.4,12 119,11.8 118.7,11.8 C118.4,11.8 118,12.2 117.4,12.9 C116.8,13.6 116.5,14.1 116.4,14.5 C116.4,14.7 116.4,15 116.4,15.4 C116.4,15.8 116.4,16.1 116.4,16.3 L116.4,22.5 C116.5,22.7 116.6,23.1 116.7,23.9 C116.8,24.7 116.9,25.2 116.9,25.5 C116.9,25.8 116.9,25.9 116.8,26 C116.7,26.1 116.6,26.1 116.3,26.1 C116.1,26.1 115.7,26.1 115.3,26 C114.8,25.9 114.5,25.9 114.3,25.9 C114.6,25.9 114.4,25.9 113.7,25.9 C113,25.9 112.6,25.9 112.4,25.9 L112.1,25.9 C111.7,25.9 111.4,25.8 111.3,25.7 L111.3,25.3 C111.3,25.1 111.4,24.6 111.5,23.8 C111.6,23 111.7,22.5 111.7,22.3 C111.8,21.8 111.8,20.9 111.8,19.7 L111.8,15.3 C111.8,14.3 111.7,13.7 111.6,13.4 C111.4,13 110.9,12.6 110.1,12.2 C109.6,11.9 109.3,11.6 109.3,11.3 C109.3,10.8 109.8,10 110.7,9 C110.8,8.6 110.9,8.3 111,8.1 C111.2,7.6 111.5,7.3 111.8,7.3 C112,7.3 112.5,7.6 113.3,8.3 C114.3,8.7 114.9,9.1 115.3,9.4 C115.9,9.9 116.2,10.5 116.3,11.2 C116.4,11.6 116.5,11.9 116.6,11.9 C116.8,11.9 117.4,11.1 118.6,9.6 C119.8,8.1 120.4,7.3 120.5,7.3 C120.8,7.3 121.3,7.5 122.1,8 C122.7,8.4 123,8.6 123,8.6 C123.7,8.9 124.6,9.2 125.9,9.6 C126.2,9.8 126.3,10.1 126.3,10.4 C126.3,10.9 126.2,11.6 126,12.6 C125.8,13.6 125.7,14.3 125.7,14.8 C125.7,14.9 125.7,15 125.8,15.1 C125.7,16.6 125.7,17.6 125.7,18 C125.7,19.2 125.7,19.9 125.8,20.3 C126,21 126.4,21.6 127.2,21.9 C127.4,22.2 127.7,22.6 127.7,23.1 Z" id="Shape"></path>
            </g>
            <g id="Group" transform="translate(20.000000, 34.000000)" fill="#FFFFFF">
                <path d="M16.4,16.1 C16.4,16.4 16.3,16.9 16.2,17.5 C16.1,18.1 16,18.5 16,18.8 L16,21.2 C16,21.5 16,22 16.1,22.6 C16.2,23.2 16.2,23.6 16.2,24 C16.2,24.3 16,24.5 15.5,24.7 C15.1,24.8 14.9,24.9 14.7,24.9 C14.1,25.1 13.4,25.5 12.4,26.2 C11.4,26.9 10.6,27.3 10.1,27.5 L9.8,27.5 C9.5,27.5 9,27.4 8.1,27.1 C7,26.8 6.4,26.6 6.2,26.6 C5.3,26.4 4.6,26.4 4.2,26.4 C3.1,26.4 2.2,26.6 1.3,26.9 C0.8,26.9 0.5,26.7 0.5,26.4 C0.5,26.3 0.9,25.7 1.8,24.5 C2.7,23.3 3.2,22.7 3.4,22.6 C3.6,22.5 4.3,22.4 5.6,22.3 C5.8,22.1 6.2,21.6 6.8,20.8 C7.4,20 7.7,19.4 7.7,19.1 C7.6,19.1 7.5,19.1 7.3,19.1 L5.6,19.1 C3.7,19.1 2.5,19.2 2.1,19.4 L2,19.4 C1.8,19.4 1.7,19.3 1.6,19.1 C1.6,18.9 1.6,18.6 1.7,18.2 C1.8,17.8 1.8,17.5 1.8,17.3 C1.9,17 1.9,16 1.9,14.5 C1.9,14.2 1.9,13.7 1.8,13 C1.7,12.3 1.7,11.8 1.7,11.5 L1.7,11.1 C2,10.9 2.2,10.8 2.5,10.6 L7.1,8.6 C7.5,8.4 7.8,8.2 8,8 L8.5,8 C8.9,8 9.7,8.2 11,8.6 C12.3,9 13.1,9.3 13.5,9.3 C13.7,9.3 13.9,9.1 14.3,8.6 C14.7,8.1 15,7.9 15.1,7.9 C15.4,7.9 15.5,7.9 15.5,8 L15.5,8.1 C15.5,8.5 15.3,9.1 14.8,9.8 L14,11.1 C13.8,11.4 13.3,12.1 12.5,13.3 C11.7,14.5 11.4,15.2 11.4,15.3 L11.4,15.4 C11.9,15.5 12.5,15.6 12.9,15.6 C13,15.6 13.6,15.6 14.6,15.5 L16.1,15.5 L16.2,16 L16.2,16.1 L16.4,16.1 Z M11.5,13.1 L11.4,12.9 C10.9,12.7 10.1,12.4 9,12 L6.6,11.1 C6.6,11.4 6.6,11.9 6.7,12.5 C6.8,13.1 6.8,13.6 6.8,13.9 C6.8,13.9 6.8,14.1 6.7,14.5 L6.7,14.7 C6.7,14.9 6.7,15 6.7,15.1 C6.9,15.3 7.5,15.4 8.6,15.4 L9.7,15.4 C10.5,15 11.1,14.2 11.5,13.1 Z M11.4,19.2 C11.4,19.1 11.3,19 11.2,18.9 L9.5,18.9 C9.2,19 8.8,19.5 8.3,20.3 C7.7,21.1 7.5,21.6 7.5,21.9 L7.5,22.2 L7.7,22.3 C8,22.3 8.6,22.5 9.6,22.8 L11.1,23.2 L11.4,23.1 C11.4,22.7 11.4,22.1 11.4,21.2 C11.4,20.2 11.4,19.6 11.4,19.2 Z" id="Shape"></path>
                <path d="M29.1,11.7 C29.1,12 28.9,12.2 28.5,12.2 C28.3,12.2 28.1,12.2 27.8,12.1 C27.5,12.1 27.3,12 27.1,12 L26.5,12 C26.3,12.3 26.2,12.6 26.2,13 C26.2,13.3 26.2,13.8 26.3,14.5 C26.3,15.1 26.4,15.6 26.4,16 C26.4,16.3 26.4,17.2 26.4,18.6 L26.3,21.2 C26.4,21.4 26.8,21.6 27.6,22 C28.4,22.4 28.9,22.6 29,22.8 C29,23.1 28.7,23.8 28,25.1 C27.4,26.3 26.9,26.9 26.8,26.9 C26.5,26.9 26.1,26.7 25.5,26.3 C24.6,25.7 24,25.3 23.5,25 C22.9,24.7 22.3,24.5 21.8,24.2 C20.8,23.7 20.3,23.4 20.3,23.1 C20.3,23 20.4,22.7 20.6,22 C20.8,21.4 20.9,21.1 21,21 C21.3,20.5 21.4,19.8 21.4,19 L21.4,12 L21,12 C20.4,12 20.1,12 20.1,12 C19.7,12 19.5,11.7 19.4,11.3 C19.4,11.4 19.4,11 19.4,10.1 C19.4,9.5 19.5,9.1 19.7,9 L20,9 C20.1,9 20.2,9 20.4,9.1 C20.6,9.1 20.7,9.2 20.7,9.2 C20.9,9.2 21.1,8.9 21.1,8.4 C21.1,8.2 21,8.1 21,8 C21,7.6 20.9,7 20.8,6.2 C20.6,5.5 20.6,5 20.6,4.8 C20.6,4.5 20.9,4.3 21.6,4.3 L24,4.3 C24.2,4.3 24.6,4.3 25.1,4.2 C25.6,4.1 25.9,4.1 26.2,4.1 C26.7,4.1 26.9,4.4 26.9,4.9 C26.9,5.2 26.8,5.7 26.7,6.5 C26.6,7.3 26.5,7.7 26.5,8.1 C26.5,8.6 26.6,9 26.7,9.4 L28.3,9.4 C28.5,9.3 28.6,9.2 28.8,9.2 C29,9.2 29.2,9.3 29.3,9.5 L29.3,11.7 L29.1,11.7 Z" id="Shape"></path>
                <path d="M50.6,23.1 C50.6,23.4 50.1,24.2 49,25.5 C48.8,26.3 48.5,26.8 48.2,27 C47.7,27 47.2,26.9 46.8,26.6 C46,26.1 45.5,25.7 45.1,25.5 C44.3,25.1 43.8,24.7 43.4,24.2 C43.3,24.1 43.1,23.6 42.8,22.8 C42.8,22.7 42.7,22.6 42.7,22.6 L42.2,23 C42.2,23 41.6,23.7 40.6,25 L39.1,26.9 C39,27 38.9,27 38.8,27 C38.4,27 37.6,26.6 36.6,25.8 C36.1,25.6 35,25.1 33.2,24.5 C33,24.3 32.9,24.1 32.9,23.7 C32.9,23.5 33,23 33.3,22.4 C33.6,21.8 33.7,21.3 33.7,21.1 L33.7,13.6 C33.7,13.3 33.3,13 32.4,12.6 C31.6,12.2 31.1,11.9 31.1,11.7 C31.1,11.5 31.2,11.3 31.3,11.1 C31.6,10.6 32.1,9.9 32.8,8.9 C33.3,8.1 33.7,7.6 33.9,7.6 C34.3,7.6 34.8,7.8 35.5,8.3 L37.1,9.4 C37.4,9.6 37.9,9.8 38.6,10.1 C39,10.3 39.3,10.5 39.3,10.7 C39.3,11 39.2,11.5 39.1,12.4 L38.9,13.6 C38.7,15.3 38.6,16.6 38.6,17.6 C38.6,19.4 38.6,20.4 38.7,20.7 C38.9,21.4 39.5,22 40.5,22.6 L40.9,22.6 C41.6,21.9 42.2,21.1 42.8,20.3 C43,19.9 43.1,18.7 43.1,16.5 L43.1,14.2 C43.1,12.8 43,11.5 42.8,10.4 C42.8,10.4 42.7,10.1 42.5,9.6 C42.3,9.2 42.3,9 42.3,8.8 C42.3,8.6 42.4,8.5 42.5,8.4 C42.9,8.4 43.4,8.5 44.1,8.6 C44.8,8.7 45.3,8.8 45.7,8.8 C46.4,8.8 47.1,8.8 47.7,8.7 C48,8.5 48.3,8.4 48.7,8.4 L48.9,8.5 L48.9,8.9 C48.9,9.2 48.7,10 48.3,11.3 C48,12.9 47.9,15.8 47.9,19.9 C47.9,20.6 48.1,21.1 48.4,21.5 C48.6,21.7 49.1,22 49.9,22.4 C50.4,22.5 50.6,22.8 50.6,23.1 Z" id="Shape"></path>
                <path d="M63.6,3.4 C63.6,3.6 63.3,4.1 62.7,4.8 C61.9,6.3 61.4,7 61.1,7 C61.1,7 60.6,6.6 59.7,5.7 C58.8,4.9 58.3,4.4 58.1,4.3 L57.8,4.4 C58.4,6.5 58.8,8 59.2,9.1 C59.4,9.2 59.8,9.2 60.3,9.2 C60.5,9.2 60.9,9.2 61.6,9.2 L62.7,9.2 C62.8,9.3 62.9,9.4 62.9,9.7 C62.9,11.2 62.7,11.9 62.4,11.9 L59.7,11.9 C59.6,12.1 59.5,12.2 59.5,12.3 C59.5,21.9 59.2,27.1 58.7,27.8 C56.3,29.9 54.9,30.9 54.4,30.9 C54,30.9 53.9,30.8 53.9,30.5 C53.9,30.4 53.9,30.2 54,29.9 C54.1,29.6 54.1,29.4 54.1,29.3 C54.3,27.9 54.5,26.5 54.6,24.9 C54.7,23.6 54.7,22.3 54.7,20.8 L54.6,15.9 C54.6,14.8 54.6,14.2 54.5,14.1 L54.5,11.9 L54.2,11.8 C53.9,11.8 53.7,11.9 53.4,11.9 L53.2,11.9 C52.8,11.9 52.5,11.8 52.5,11.5 L52.5,9.5 L52.7,9.3 L53,9.3 C53.1,9.3 53.2,9.3 53.3,9.3 C53.6,9.3 54,9.3 54.3,9.2 L54.3,8.6 C54.3,8.2 54.1,7.4 53.8,6.4 C53.5,5.4 53.2,4.6 53,4.2 L53.1,4 C53.7,3.7 54.7,3.2 55.9,2.5 C57.7,1.6 58.7,0.9 59,0.5 L59.8,0.5 C60.3,1.1 61.5,1.9 63.5,2.9 C63.5,3 63.6,3.2 63.6,3.4 Z" id="Shape"></path>
                <path d="M75.3,3.4 C75.3,3.6 75,4.1 74.4,4.8 C73.6,6.3 73.1,7 72.8,7 C72.8,7 72.3,6.6 71.4,5.7 C70.5,4.9 70,4.4 69.8,4.3 L69.5,4.4 C70.1,6.5 70.5,8 70.9,9.1 C71.1,9.2 71.5,9.2 72,9.2 C72.2,9.2 72.6,9.2 73.3,9.2 L74.4,9.2 C74.5,9.3 74.6,9.4 74.6,9.7 C74.6,11.2 74.4,11.9 74.1,11.9 L71.4,11.9 C71.3,12.1 71.2,12.2 71.2,12.3 C71.2,21.9 70.9,27.1 70.4,27.8 C68,29.9 66.6,30.9 66.1,30.9 C65.7,30.9 65.6,30.8 65.6,30.5 C65.6,30.4 65.6,30.2 65.7,29.9 C65.8,29.6 65.8,29.4 65.8,29.3 C66,27.9 66.2,26.5 66.3,24.9 C66.4,23.6 66.4,22.3 66.4,20.8 L66.3,15.9 C66.3,14.8 66.3,14.2 66.2,14.1 L66.2,11.9 L65.9,11.8 C65.6,11.8 65.4,11.9 65.1,11.9 L64.9,11.9 C64.5,11.9 64.2,11.8 64.2,11.5 L64.2,9.5 L64.4,9.3 L64.7,9.3 C64.8,9.3 64.9,9.3 65,9.3 C65.3,9.3 65.7,9.3 66,9.2 L66,8.6 C66,8.2 65.8,7.4 65.5,6.4 C65.2,5.4 64.9,4.6 64.7,4.2 L64.8,4 C65.4,3.7 66.4,3.2 67.6,2.5 C69.4,1.6 70.4,0.9 70.7,0.5 L71.5,0.5 C72,1.1 73.2,1.9 75.2,2.9 C75.2,3 75.3,3.2 75.3,3.4 Z" id="Shape"></path>
                <path d="M88.3,13.3 C88.3,13.9 87.9,14.4 87.2,14.9 C86.5,15.7 85.2,17 83.2,19 L81.7,20.4 L81.6,20.9 C82.7,21.4 83.4,21.7 83.7,21.8 C84.1,21.9 84.3,22 84.4,22 C85.4,22.1 86.1,22.2 86.4,22.3 C87,22.5 87.3,22.7 87.3,23 C87.3,23.4 87,24.1 86.3,24.9 C85.9,25.4 85.4,26 84.9,26.7 C84.7,26.8 84.6,26.8 84.3,26.8 C84,26.8 83.7,26.7 83.4,26.5 C81.8,25.6 79.8,24.9 77.3,24.6 C76.5,24.4 76,24 76,23.4 C76.5,22.2 76.8,20 76.8,16.9 C76.8,16 76.8,15 76.7,14.2 C76.7,14 76.6,13.6 76.5,13.1 C76.4,12.6 76.3,12.2 76.3,12 C76.3,11.6 76.8,11.1 77.9,10.7 C78.6,10.4 79.4,10.1 80.1,9.9 C81.4,9.3 82.4,8.7 83.3,8 L83.4,8 C83.8,8 84.2,8.4 84.7,9.1 C84.9,9.4 85.1,9.9 85.4,10.5 C85.5,10.7 86,11.1 87,11.8 C88,12.1 88.3,12.7 88.3,13.3 Z M84.8,15.7 C84.6,15.3 84.2,14.7 83.5,13.9 C82.8,13.1 82.3,12.6 81.9,12.5 L81.8,12.5 C81.8,12.9 81.8,13.4 81.8,14.2 C81.8,15 81.8,15.5 81.8,15.9 L81.8,17.9 C81.8,18.2 81.8,18.4 81.9,18.7 C82.3,18.7 82.8,18.3 83.6,17.5 C84.2,16.7 84.7,16.1 84.8,15.7 Z" id="Shape"></path>
            </g>
        </g>
    </g>
</svg>